<svg width="29" height="29" viewBox="0 0 29 29" fill="none" xmlns="http://www.w3.org/2000/svg">
<mask id="mask0_32_5275" style="mask-type:alpha" maskUnits="userSpaceOnUse" x="0" y="0" width="29" height="29">
<rect x="0.835449" y="0.836914" width="27.552" height="27.552" fill="#D9D9D9"/>
</mask>
<g mask="url(#mask0_32_5275)">
<path d="M13.4643 25.7761V15.2719L4.28027 9.96243V19.1751C4.28027 19.5961 4.38072 19.9787 4.58162 20.3231C4.78252 20.6675 5.06474 20.945 5.42827 21.1554L13.4643 25.7761ZM15.7603 25.7761L23.7963 21.1554C24.1598 20.945 24.442 20.6675 24.6429 20.3231C24.8438 19.9787 24.9443 19.5961 24.9443 19.1751V9.96243L15.7603 15.2719V25.7761ZM20.3236 9.99113L23.7102 8.01083L15.7603 3.44754C15.3967 3.23707 15.0141 3.13184 14.6123 3.13184C14.2105 3.13184 13.8278 3.23707 13.4643 3.44754L11.197 4.73904L20.3236 9.99113ZM14.6123 13.2916L18.0276 11.34L8.92967 6.05923L5.48567 8.03953L14.6123 13.2916Z" fill="#03443C"/>
</g>
</svg>
