<svg width="16" height="16" viewBox="0 0 16 16" fill="none" xmlns="http://www.w3.org/2000/svg">
<path d="M7.82833 7.07659C8.34136 7.07659 8.75725 6.6607 8.75725 6.14767C8.75725 5.63464 8.34136 5.21875 7.82833 5.21875C7.3153 5.21875 6.89941 5.63464 6.89941 6.14767C6.89941 6.6607 7.3153 7.07659 7.82833 7.07659Z" fill="#432277"/>
<path d="M7.82867 1.50293C5.26776 1.50293 3.18408 3.49575 3.18408 5.94432C3.18408 7.1104 3.7156 8.66111 4.76382 10.5535C5.60565 12.0729 6.57957 13.4468 7.08612 14.1304C7.17171 14.2472 7.28363 14.3422 7.41279 14.4077C7.54195 14.4732 7.68473 14.5073 7.82954 14.5073C7.97436 14.5073 8.11713 14.4732 8.24629 14.4077C8.37546 14.3422 8.48737 14.2472 8.57297 14.1304C9.07865 13.4468 10.0534 12.0729 10.8953 10.5535C11.9417 8.66169 12.4733 7.11098 12.4733 5.94432C12.4733 3.49575 10.3896 1.50293 7.82867 1.50293ZM7.82867 8.00536C7.46123 8.00536 7.10203 7.8964 6.79651 7.69225C6.49099 7.48811 6.25287 7.19796 6.11225 6.85848C5.97164 6.51901 5.93485 6.14546 6.00653 5.78507C6.07822 5.42469 6.25516 5.09365 6.51498 4.83383C6.77481 4.57401 7.10584 4.39707 7.46623 4.32538C7.82661 4.2537 8.20016 4.29049 8.53963 4.4311C8.87911 4.57172 9.16926 4.80984 9.37341 5.11536C9.57755 5.42088 9.68651 5.78007 9.68651 6.14752C9.68597 6.64008 9.49006 7.11232 9.14177 7.46061C8.79347 7.80891 8.32124 8.00482 7.82867 8.00536Z" fill="#432277"/>
</svg>
