<svg width="30" height="30" viewBox="0 0 30 30" fill="none" xmlns="http://www.w3.org/2000/svg">
<path d="M14.8197 0.45282C6.82957 0.45282 0.329102 6.95329 0.329102 14.9434V20.9468C0.329102 22.4307 1.62891 23.6377 3.22721 23.6377H4.67627C5.06058 23.6377 5.42916 23.4851 5.70091 23.2133C5.97266 22.9416 6.12533 22.573 6.12533 22.1887V14.7362C6.12533 14.3519 5.97266 13.9833 5.70091 13.7115C5.42916 13.4398 5.06058 13.2871 4.67627 13.2871H3.36053C4.1662 7.67927 8.99156 3.35093 14.8197 3.35093C20.6478 3.35093 25.4731 7.67927 26.2788 13.2871H24.9631C24.5787 13.2871 24.2102 13.4398 23.9384 13.7115C23.6667 13.9833 23.514 14.3519 23.514 14.7362V23.6377C23.514 25.236 22.2142 26.5358 20.6159 26.5358H17.7178V25.0868H11.9216V29.434H20.6159C23.8125 29.434 26.4121 26.8343 26.4121 23.6377C28.0104 23.6377 29.3102 22.4307 29.3102 20.9468V14.9434C29.3102 6.95329 22.8098 0.45282 14.8197 0.45282Z" fill="#432277"/>
</svg>
